<?xml version="1.0" encoding="UTF-8" standalone="no"?>
<!DOCTYPE svg PUBLIC "-//W3C//DTD SVG 1.1//EN" "http://www.w3.org/Graphics/SVG/1.1/DTD/svg11.dtd">
<svg width="100%" height="100%" viewBox="0 0 645 645" version="1.1" xmlns="http://www.w3.org/2000/svg" xmlns:xlink="http://www.w3.org/1999/xlink" xml:space="preserve" xmlns:serif="http://www.serif.com/" style="fill-rule:evenodd;clip-rule:evenodd;stroke-linejoin:round;stroke-miterlimit:2;">
    <g transform="matrix(1,0,0,1,-3408,-7.93027)">
        <g transform="matrix(1,0,0,1,-0.378609,7.93027)">
            <rect id="Artboard5" x="3408.38" y="0" width="644.045" height="644.629" style="fill:none;"/>
            <g id="Artboard51" serif:id="Artboard5">
                <g transform="matrix(2.09707,0,0,2.09707,-3636.39,-226.176)">
                    <g transform="matrix(48.901,0,0,47.9515,3380.2,266.693)">
                        <path d="M0.368,-0.066L0.365,-0.066C0.348,-0.039 0.326,-0.019 0.299,-0.007C0.272,0.006 0.243,0.012 0.211,0.012C0.189,0.012 0.167,0.009 0.147,0.003C0.126,-0.003 0.107,-0.012 0.091,-0.024C0.074,-0.036 0.061,-0.051 0.051,-0.069C0.041,-0.087 0.036,-0.108 0.036,-0.132C0.036,-0.158 0.041,-0.18 0.05,-0.199C0.059,-0.217 0.072,-0.232 0.088,-0.245C0.103,-0.257 0.121,-0.267 0.142,-0.274C0.163,-0.281 0.184,-0.287 0.207,-0.291C0.229,-0.294 0.251,-0.297 0.274,-0.298C0.297,-0.299 0.318,-0.299 0.338,-0.299L0.368,-0.299L0.368,-0.312C0.368,-0.342 0.358,-0.365 0.337,-0.38C0.316,-0.395 0.29,-0.402 0.258,-0.402C0.233,-0.402 0.209,-0.398 0.187,-0.389C0.165,-0.38 0.146,-0.367 0.13,-0.352L0.067,-0.415C0.094,-0.442 0.125,-0.462 0.161,-0.474C0.196,-0.486 0.233,-0.492 0.271,-0.492C0.305,-0.492 0.334,-0.488 0.357,-0.481C0.38,-0.473 0.4,-0.463 0.415,-0.451C0.43,-0.439 0.442,-0.425 0.451,-0.41C0.459,-0.394 0.465,-0.378 0.469,-0.362C0.472,-0.346 0.474,-0.331 0.475,-0.316C0.476,-0.301 0.476,-0.287 0.476,-0.276L0.476,-0L0.368,-0L0.368,-0.066ZM0.361,-0.215L0.336,-0.215C0.319,-0.215 0.301,-0.214 0.28,-0.213C0.259,-0.212 0.24,-0.209 0.222,-0.204C0.203,-0.199 0.188,-0.191 0.175,-0.182C0.162,-0.172 0.156,-0.158 0.156,-0.141C0.156,-0.13 0.159,-0.12 0.164,-0.113C0.169,-0.105 0.175,-0.098 0.183,-0.093C0.191,-0.088 0.2,-0.084 0.21,-0.082C0.22,-0.079 0.23,-0.078 0.24,-0.078C0.281,-0.078 0.312,-0.088 0.332,-0.108C0.351,-0.127 0.361,-0.154 0.361,-0.188L0.361,-0.215Z" style="fill-rule:nonzero;"/>
                    </g>
                    <g transform="matrix(48.901,0,0,47.9515,3415.85,266.693)">
                        <path d="M0.324,-0.347C0.301,-0.38 0.269,-0.396 0.23,-0.396C0.214,-0.396 0.198,-0.392 0.183,-0.384C0.168,-0.376 0.16,-0.363 0.16,-0.345C0.16,-0.33 0.166,-0.32 0.179,-0.313C0.192,-0.306 0.208,-0.301 0.227,-0.296C0.246,-0.291 0.267,-0.286 0.29,-0.282C0.312,-0.277 0.333,-0.269 0.352,-0.259C0.371,-0.248 0.387,-0.234 0.4,-0.216C0.413,-0.198 0.419,-0.173 0.419,-0.142C0.419,-0.113 0.413,-0.089 0.401,-0.07C0.388,-0.05 0.372,-0.034 0.353,-0.022C0.333,-0.01 0.311,-0.001 0.286,0.004C0.261,0.009 0.237,0.012 0.212,0.012C0.175,0.012 0.14,0.007 0.109,-0.004C0.078,-0.015 0.05,-0.034 0.025,-0.062L0.105,-0.137C0.12,-0.12 0.137,-0.106 0.155,-0.095C0.172,-0.084 0.194,-0.078 0.219,-0.078C0.228,-0.078 0.237,-0.079 0.246,-0.081C0.255,-0.083 0.264,-0.086 0.272,-0.091C0.28,-0.096 0.287,-0.101 0.292,-0.109C0.297,-0.116 0.299,-0.124 0.299,-0.133C0.299,-0.15 0.293,-0.162 0.28,-0.17C0.267,-0.178 0.251,-0.185 0.232,-0.19C0.213,-0.195 0.192,-0.199 0.17,-0.204C0.147,-0.208 0.126,-0.215 0.107,-0.225C0.088,-0.234 0.072,-0.248 0.059,-0.265C0.046,-0.282 0.04,-0.306 0.04,-0.337C0.04,-0.364 0.046,-0.387 0.057,-0.407C0.067,-0.426 0.082,-0.442 0.1,-0.455C0.118,-0.468 0.139,-0.477 0.162,-0.483C0.185,-0.489 0.209,-0.492 0.233,-0.492C0.265,-0.492 0.297,-0.487 0.328,-0.476C0.359,-0.464 0.385,-0.446 0.404,-0.419L0.324,-0.347Z" style="fill-rule:nonzero;"/>
                    </g>
                    <g transform="matrix(48.901,0,0,47.9515,3435.02,266.693)">
                        <path d="M0.063,-0.48L0.177,-0.48L0.177,-0.405L0.179,-0.405C0.19,-0.428 0.207,-0.448 0.231,-0.466C0.254,-0.483 0.286,-0.492 0.326,-0.492C0.401,-0.492 0.451,-0.462 0.476,-0.403C0.493,-0.434 0.515,-0.456 0.541,-0.471C0.567,-0.485 0.598,-0.492 0.634,-0.492C0.666,-0.492 0.693,-0.487 0.715,-0.476C0.737,-0.465 0.755,-0.451 0.769,-0.432C0.782,-0.413 0.792,-0.392 0.798,-0.367C0.804,-0.341 0.807,-0.315 0.807,-0.286L0.807,-0L0.687,-0L0.687,-0.272C0.687,-0.287 0.686,-0.301 0.683,-0.315C0.68,-0.328 0.676,-0.34 0.669,-0.351C0.662,-0.361 0.653,-0.369 0.642,-0.375C0.631,-0.381 0.616,-0.384 0.598,-0.384C0.579,-0.384 0.564,-0.381 0.551,-0.374C0.538,-0.367 0.527,-0.357 0.519,-0.346C0.51,-0.334 0.504,-0.321 0.501,-0.306C0.497,-0.291 0.495,-0.275 0.495,-0.26L0.495,-0L0.375,-0L0.375,-0.286C0.375,-0.316 0.369,-0.34 0.356,-0.358C0.343,-0.375 0.322,-0.384 0.293,-0.384C0.273,-0.384 0.256,-0.381 0.243,-0.374C0.229,-0.367 0.218,-0.358 0.209,-0.347C0.2,-0.336 0.193,-0.323 0.189,-0.308C0.185,-0.293 0.183,-0.278 0.183,-0.262L0.183,-0L0.063,-0L0.063,-0.48Z" style="fill-rule:nonzero;"/>
                    </g>
                    <g transform="matrix(48.901,0,0,47.9515,3475.02,266.693)">
                        <path d="M0.368,-0.066L0.365,-0.066C0.348,-0.039 0.326,-0.019 0.299,-0.007C0.272,0.006 0.243,0.012 0.211,0.012C0.189,0.012 0.167,0.009 0.147,0.003C0.126,-0.003 0.107,-0.012 0.091,-0.024C0.074,-0.036 0.061,-0.051 0.051,-0.069C0.041,-0.087 0.036,-0.108 0.036,-0.132C0.036,-0.158 0.041,-0.18 0.05,-0.199C0.059,-0.217 0.072,-0.232 0.088,-0.245C0.103,-0.257 0.121,-0.267 0.142,-0.274C0.163,-0.281 0.184,-0.287 0.207,-0.291C0.229,-0.294 0.251,-0.297 0.274,-0.298C0.297,-0.299 0.318,-0.299 0.338,-0.299L0.368,-0.299L0.368,-0.312C0.368,-0.342 0.358,-0.365 0.337,-0.38C0.316,-0.395 0.29,-0.402 0.258,-0.402C0.233,-0.402 0.209,-0.398 0.187,-0.389C0.165,-0.38 0.146,-0.367 0.13,-0.352L0.067,-0.415C0.094,-0.442 0.125,-0.462 0.161,-0.474C0.196,-0.486 0.233,-0.492 0.271,-0.492C0.305,-0.492 0.334,-0.488 0.357,-0.481C0.38,-0.473 0.4,-0.463 0.415,-0.451C0.43,-0.439 0.442,-0.425 0.451,-0.41C0.459,-0.394 0.465,-0.378 0.469,-0.362C0.472,-0.346 0.474,-0.331 0.475,-0.316C0.476,-0.301 0.476,-0.287 0.476,-0.276L0.476,-0L0.368,-0L0.368,-0.066ZM0.361,-0.215L0.336,-0.215C0.319,-0.215 0.301,-0.214 0.28,-0.213C0.259,-0.212 0.24,-0.209 0.222,-0.204C0.203,-0.199 0.188,-0.191 0.175,-0.182C0.162,-0.172 0.156,-0.158 0.156,-0.141C0.156,-0.13 0.159,-0.12 0.164,-0.113C0.169,-0.105 0.175,-0.098 0.183,-0.093C0.191,-0.088 0.2,-0.084 0.21,-0.082C0.22,-0.079 0.23,-0.078 0.24,-0.078C0.281,-0.078 0.312,-0.088 0.332,-0.108C0.351,-0.127 0.361,-0.154 0.361,-0.188L0.361,-0.215Z" style="fill-rule:nonzero;"/>
                    </g>
                    <g transform="matrix(48.901,0,0,47.9515,3498.74,266.693)">
                        <rect x="0.07" y="-0.756" width="0.12" height="0.756" style="fill-rule:nonzero;"/>
                    </g>
                    <g transform="matrix(48.901,0,0,47.9515,3508.96,266.693)">
                        <rect x="0.07" y="-0.756" width="0.12" height="0.756" style="fill-rule:nonzero;"/>
                    </g>
                    <g transform="matrix(48.901,0,0,47.9515,3531.06,266.693)">
                        <path d="M0.324,-0.347C0.301,-0.38 0.269,-0.396 0.23,-0.396C0.214,-0.396 0.198,-0.392 0.183,-0.384C0.168,-0.376 0.16,-0.363 0.16,-0.345C0.16,-0.33 0.166,-0.32 0.179,-0.313C0.192,-0.306 0.208,-0.301 0.227,-0.296C0.246,-0.291 0.267,-0.286 0.29,-0.282C0.312,-0.277 0.333,-0.269 0.352,-0.259C0.371,-0.248 0.387,-0.234 0.4,-0.216C0.413,-0.198 0.419,-0.173 0.419,-0.142C0.419,-0.113 0.413,-0.089 0.401,-0.07C0.388,-0.05 0.372,-0.034 0.353,-0.022C0.333,-0.01 0.311,-0.001 0.286,0.004C0.261,0.009 0.237,0.012 0.212,0.012C0.175,0.012 0.14,0.007 0.109,-0.004C0.078,-0.015 0.05,-0.034 0.025,-0.062L0.105,-0.137C0.12,-0.12 0.137,-0.106 0.155,-0.095C0.172,-0.084 0.194,-0.078 0.219,-0.078C0.228,-0.078 0.237,-0.079 0.246,-0.081C0.255,-0.083 0.264,-0.086 0.272,-0.091C0.28,-0.096 0.287,-0.101 0.292,-0.109C0.297,-0.116 0.299,-0.124 0.299,-0.133C0.299,-0.15 0.293,-0.162 0.28,-0.17C0.267,-0.178 0.251,-0.185 0.232,-0.19C0.213,-0.195 0.192,-0.199 0.17,-0.204C0.147,-0.208 0.126,-0.215 0.107,-0.225C0.088,-0.234 0.072,-0.248 0.059,-0.265C0.046,-0.282 0.04,-0.306 0.04,-0.337C0.04,-0.364 0.046,-0.387 0.057,-0.407C0.067,-0.426 0.082,-0.442 0.1,-0.455C0.118,-0.468 0.139,-0.477 0.162,-0.483C0.185,-0.489 0.209,-0.492 0.233,-0.492C0.265,-0.492 0.297,-0.487 0.328,-0.476C0.359,-0.464 0.385,-0.446 0.404,-0.419L0.324,-0.347Z" style="fill-rule:nonzero;"/>
                    </g>
                    <g transform="matrix(48.901,0,0,47.9515,3550.23,266.693)">
                        <path d="M0.068,-0.48L0.182,-0.48L0.182,-0.408L0.184,-0.408C0.201,-0.437 0.225,-0.459 0.254,-0.472C0.283,-0.485 0.315,-0.492 0.349,-0.492C0.386,-0.492 0.419,-0.486 0.448,-0.473C0.477,-0.46 0.502,-0.442 0.523,-0.419C0.544,-0.396 0.559,-0.37 0.57,-0.339C0.581,-0.308 0.586,-0.275 0.586,-0.24C0.586,-0.205 0.58,-0.172 0.569,-0.141C0.558,-0.11 0.542,-0.084 0.522,-0.061C0.501,-0.038 0.477,-0.021 0.448,-0.008C0.419,0.006 0.388,0.012 0.354,0.012C0.331,0.012 0.311,0.01 0.294,0.005C0.277,0 0.261,-0.006 0.248,-0.013C0.235,-0.02 0.223,-0.028 0.214,-0.037C0.205,-0.045 0.197,-0.053 0.191,-0.061L0.188,-0.061L0.188,0.228L0.068,0.228L0.068,-0.48ZM0.466,-0.24C0.466,-0.259 0.463,-0.277 0.457,-0.294C0.45,-0.311 0.441,-0.327 0.429,-0.34C0.416,-0.353 0.401,-0.364 0.384,-0.372C0.367,-0.38 0.347,-0.384 0.325,-0.384C0.303,-0.384 0.283,-0.38 0.266,-0.372C0.249,-0.364 0.234,-0.353 0.222,-0.34C0.209,-0.327 0.2,-0.311 0.194,-0.294C0.187,-0.277 0.184,-0.259 0.184,-0.24C0.184,-0.221 0.187,-0.203 0.194,-0.186C0.2,-0.169 0.209,-0.153 0.222,-0.14C0.234,-0.127 0.249,-0.116 0.266,-0.108C0.283,-0.1 0.303,-0.096 0.325,-0.096C0.347,-0.096 0.367,-0.1 0.384,-0.108C0.401,-0.116 0.416,-0.127 0.429,-0.14C0.441,-0.153 0.45,-0.169 0.457,-0.186C0.463,-0.203 0.466,-0.221 0.466,-0.24Z" style="fill-rule:nonzero;"/>
                    </g>
                    <g transform="matrix(48.901,0,0,47.9515,3578.5,266.693)">
                        <path d="M0.368,-0.066L0.365,-0.066C0.348,-0.039 0.326,-0.019 0.299,-0.007C0.272,0.006 0.243,0.012 0.211,0.012C0.189,0.012 0.167,0.009 0.147,0.003C0.126,-0.003 0.107,-0.012 0.091,-0.024C0.074,-0.036 0.061,-0.051 0.051,-0.069C0.041,-0.087 0.036,-0.108 0.036,-0.132C0.036,-0.158 0.041,-0.18 0.05,-0.199C0.059,-0.217 0.072,-0.232 0.088,-0.245C0.103,-0.257 0.121,-0.267 0.142,-0.274C0.163,-0.281 0.184,-0.287 0.207,-0.291C0.229,-0.294 0.251,-0.297 0.274,-0.298C0.297,-0.299 0.318,-0.299 0.338,-0.299L0.368,-0.299L0.368,-0.312C0.368,-0.342 0.358,-0.365 0.337,-0.38C0.316,-0.395 0.29,-0.402 0.258,-0.402C0.233,-0.402 0.209,-0.398 0.187,-0.389C0.165,-0.38 0.146,-0.367 0.13,-0.352L0.067,-0.415C0.094,-0.442 0.125,-0.462 0.161,-0.474C0.196,-0.486 0.233,-0.492 0.271,-0.492C0.305,-0.492 0.334,-0.488 0.357,-0.481C0.38,-0.473 0.4,-0.463 0.415,-0.451C0.43,-0.439 0.442,-0.425 0.451,-0.41C0.459,-0.394 0.465,-0.378 0.469,-0.362C0.472,-0.346 0.474,-0.331 0.475,-0.316C0.476,-0.301 0.476,-0.287 0.476,-0.276L0.476,-0L0.368,-0L0.368,-0.066ZM0.361,-0.215L0.336,-0.215C0.319,-0.215 0.301,-0.214 0.28,-0.213C0.259,-0.212 0.24,-0.209 0.222,-0.204C0.203,-0.199 0.188,-0.191 0.175,-0.182C0.162,-0.172 0.156,-0.158 0.156,-0.141C0.156,-0.13 0.159,-0.12 0.164,-0.113C0.169,-0.105 0.175,-0.098 0.183,-0.093C0.191,-0.088 0.2,-0.084 0.21,-0.082C0.22,-0.079 0.23,-0.078 0.24,-0.078C0.281,-0.078 0.312,-0.088 0.332,-0.108C0.351,-0.127 0.361,-0.154 0.361,-0.188L0.361,-0.215Z" style="fill-rule:nonzero;"/>
                    </g>
                    <g transform="matrix(48.901,0,0,47.9515,3602.21,266.693)">
                        <path d="M0.396,-0.336C0.382,-0.351 0.367,-0.362 0.352,-0.371C0.337,-0.38 0.321,-0.384 0.305,-0.384C0.283,-0.384 0.263,-0.38 0.246,-0.372C0.229,-0.364 0.214,-0.353 0.202,-0.34C0.189,-0.327 0.18,-0.311 0.174,-0.294C0.167,-0.277 0.164,-0.259 0.164,-0.24C0.164,-0.221 0.167,-0.203 0.174,-0.186C0.18,-0.169 0.189,-0.153 0.202,-0.14C0.214,-0.127 0.229,-0.116 0.246,-0.108C0.263,-0.1 0.283,-0.096 0.305,-0.096C0.324,-0.096 0.341,-0.1 0.357,-0.108C0.373,-0.115 0.387,-0.126 0.398,-0.141L0.478,-0.055C0.466,-0.043 0.452,-0.033 0.437,-0.024C0.421,-0.015 0.405,-0.008 0.389,-0.003C0.373,0.002 0.358,0.006 0.343,0.009C0.328,0.011 0.316,0.012 0.305,0.012C0.269,0.012 0.235,0.006 0.203,-0.006C0.171,-0.018 0.143,-0.035 0.12,-0.057C0.097,-0.079 0.078,-0.106 0.065,-0.137C0.051,-0.167 0.044,-0.202 0.044,-0.24C0.044,-0.278 0.051,-0.313 0.065,-0.344C0.078,-0.375 0.097,-0.401 0.12,-0.423C0.143,-0.445 0.171,-0.462 0.203,-0.474C0.235,-0.486 0.269,-0.492 0.305,-0.492C0.336,-0.492 0.367,-0.486 0.398,-0.475C0.429,-0.463 0.456,-0.444 0.479,-0.419L0.396,-0.336Z" style="fill-rule:nonzero;"/>
                    </g>
                    <g transform="matrix(48.901,0,0,47.9515,3623.24,266.693)">
                        <path d="M0.164,-0.198C0.168,-0.162 0.182,-0.134 0.206,-0.114C0.23,-0.094 0.259,-0.084 0.293,-0.084C0.323,-0.084 0.348,-0.09 0.369,-0.103C0.389,-0.115 0.407,-0.13 0.422,-0.149L0.508,-0.084C0.48,-0.049 0.449,-0.025 0.414,-0.01C0.379,0.005 0.343,0.012 0.305,0.012C0.269,0.012 0.235,0.006 0.203,-0.006C0.171,-0.018 0.143,-0.035 0.12,-0.057C0.097,-0.079 0.078,-0.106 0.065,-0.137C0.051,-0.167 0.044,-0.202 0.044,-0.24C0.044,-0.278 0.051,-0.313 0.065,-0.344C0.078,-0.375 0.097,-0.401 0.12,-0.423C0.143,-0.445 0.171,-0.462 0.203,-0.474C0.235,-0.486 0.269,-0.492 0.305,-0.492C0.338,-0.492 0.369,-0.486 0.397,-0.475C0.424,-0.463 0.448,-0.446 0.468,-0.424C0.487,-0.402 0.502,-0.375 0.514,-0.343C0.525,-0.31 0.53,-0.273 0.53,-0.231L0.53,-0.198L0.164,-0.198ZM0.41,-0.288C0.409,-0.323 0.398,-0.351 0.377,-0.372C0.356,-0.392 0.326,-0.402 0.288,-0.402C0.252,-0.402 0.224,-0.392 0.203,-0.371C0.182,-0.35 0.169,-0.323 0.164,-0.288L0.41,-0.288Z" style="fill-rule:nonzero;"/>
                    </g>
                </g>
            </g>
        </g>
    </g>
</svg>
