<?xml version="1.0" encoding="UTF-8" standalone="no"?>
<!DOCTYPE svg PUBLIC "-//W3C//DTD SVG 1.1//EN" "http://www.w3.org/Graphics/SVG/1.1/DTD/svg11.dtd">
<svg width="100%" height="100%" viewBox="0 0 645 645" version="1.1" xmlns="http://www.w3.org/2000/svg" xmlns:xlink="http://www.w3.org/1999/xlink" xml:space="preserve" xmlns:serif="http://www.serif.com/" style="fill-rule:evenodd;clip-rule:evenodd;stroke-linejoin:round;stroke-miterlimit:2;">
    <g transform="matrix(1,0,0,1,-3408,-7.93027)">
        <g transform="matrix(1,0,0,1,-0.378609,7.93027)">
            <rect id="Artboard5" x="3408.38" y="0" width="644.045" height="644.629" style="fill:none;"/>
            <g id="Artboard51" serif:id="Artboard5">
                <g transform="matrix(2.09707,0,0,2.09707,-3636.39,-226.176)">
                    <g transform="matrix(1.03,0,0,1.01,-101.406,-2.66693)">
                        <g transform="matrix(47.4767,0,0,47.4767,3643.41,266.693)">
                        </g>
                        <text x="3380.2px" y="266.693px" style="font-family:'Avenir-Heavy', 'Avenir', sans-serif;font-weight:900;font-size:47.477px;">a<tspan x="3403.23px 3414.81px 3433.42px 3472.26px 3495.29px 3505.21px 3515.08px 3526.67px 3545.28px 3572.72px 3595.75px 3616.16px " y="266.693px 266.693px 266.693px 266.693px 266.693px 266.693px 266.693px 266.693px 266.693px 266.693px 266.693px 266.693px "> small space</tspan></text>
                    </g>
                </g>
            </g>
        </g>
    </g>
</svg>
